<?xml version="1.0" encoding="utf-8"?>
<!-- Svg Vector Icons : http://www.onlinewebfonts.com/icon -->
<!DOCTYPE svg PUBLIC "-//W3C//DTD SVG 1.1//EN" "http://www.w3.org/Graphics/SVG/1.1/DTD/svg11.dtd">
<svg version="1.1" xmlns="http://www.w3.org/2000/svg" xmlns:xlink="http://www.w3.org/1999/xlink" x="0px" y="0px" viewBox="0 0 256 256" enable-background="new 0 0 256 256" xml:space="preserve">
<metadata> Svg Vector Icons : http://www.onlinewebfonts.com/icon </metadata>
<g><g><path fill="grey" d="M161,124.2c15.7-11.3,26-30.3,26-52c0-34.6-26.4-62.7-59-62.7c-32.6,0-59,28.1-59,62.7c0,21.6,10.3,40.7,26,52c-49.1,15.2-85,63.3-85,120.4c0,0.6,0.1,1.2,0.1,1.9h19.8c0-0.7-0.2-1.3-0.2-1.9c0-57.6,44.1-104.5,98.3-104.5c54.2,0,98.3,46.9,98.3,104.5c0,0.6-0.2,1.2-0.2,1.9h19.7c0-0.7,0.1-1.3,0.1-1.9C246,187.5,210.1,139.3,161,124.2z M128,30.4c21.7,0,39.3,18.7,39.3,41.8S149.7,114,128,114S88.7,95.2,88.7,72.2C88.7,49.1,106.3,30.4,128,30.4z"/></g></g>
</svg>